<svg viewBox="0 0 24 24" width="100%" fill="currentColor" fit="" height="100%" preserveAspectRatio="xMidYMid meet" focusable="false" sandboxuid="3"><path fill="currentColor" d="M10.8 15.8h2.3v2.6h-2.3z" sandboxuid="3"></path><path fill="currentColor" d="M18.5 13.9c-.2 0-.3-.1-.4-.2L14 9.5l-2.7 2.9c-.2.2-.5.2-.8.1l-2.1-1.7-2.2 2.9c-.1.1-.3.2-.4.2H2v1.7c0 .4.3.7.7.8h18.5c.4 0 .7-.3.7-.8v-1.7h-3.4z" sandboxuid="3"></path><path fill="#currentColor" d="M5.5 12.8l2.4-3.2c.1-.1.2-.2.3-.2.1 0 .3 0 .4.1l2.1 1.7 2.8-2.9c.1-.1.2-.2.4-.2s.3.1.4.2l4.3 4.5H22V6c0-.4-.3-.7-.7-.7H2.7c-.4 0-.7.3-.7.7v6.8h3.5zM9 18.2h6c.2 0 .3.1.3.3 0 .2-.1.3-.3.3H9c-.2 0-.3-.1-.3-.3 0-.2.1-.3.3-.3z" sandboxuid="3"></path></svg>